<svg width="16" height="17" viewBox="0 0 16 17" fill="none" xmlns="http://www.w3.org/2000/svg">
<path class="ihw_svg__stroke" d="M7.20182 1.91954C7.52438 1.18722 8.56432 1.1898 8.88324 1.92372L14.4423 14.7166C14.7057 15.3227 14.2615 16 13.6007 16H2.4069C1.74416 16 1.29996 15.319 1.5671 14.7125L7.20182 1.91954Z" stroke="#FF8B8B" stroke-width="2"/>
<path class="ihw_svg__fill" d="M8.00923 12.5465L7.53918 12.5572C7.41014 12.5786 7.29954 12.6249 7.20738 12.6961C7.12442 12.7531 7.06912 12.8137 7.04148 12.8778C7.01382 12.9419 7 13.0738 7 13.2733C7 13.4728 7.01382 13.6046 7.04148 13.6687C7.06912 13.7257 7.12442 13.7863 7.20738 13.8504C7.28111 13.9074 7.35945 13.9466 7.4424 13.9679C7.46083 13.9751 7.47926 13.9786 7.4977 13.9786L8.02305 14C8.31798 14 8.51153 13.9822 8.6037 13.9466C8.74195 13.8967 8.84333 13.8183 8.90786 13.7114C8.95393 13.6402 8.97698 13.4941 8.97698 13.2733C8.97698 13.0524 8.95393 12.9063 8.90786 12.8351C8.84333 12.7282 8.74195 12.6498 8.6037 12.5999C8.51153 12.5643 8.31337 12.5465 8.00923 12.5465Z" fill="#FF8B8B"/>
<path class="ihw_svg__fill" d="M7.57343 6H8.02098C8.32867 6.00001 8.52913 6.01697 8.62238 6.05088C8.76223 6.11025 8.8648 6.20352 8.93007 6.33071C8.96736 6.40704 8.99067 6.48335 9 6.55966L8.83217 8.93822C8.72027 10.4731 8.66433 11.2532 8.66434 11.2786C8.64568 11.4228 8.57575 11.5457 8.45455 11.6475C8.37995 11.7068 8.29603 11.7535 8.2028 11.7874L7.99301 11.8128C7.90909 11.8128 7.84382 11.8044 7.7972 11.7874C7.5268 11.7026 7.37296 11.533 7.33566 11.2786L7 6.55966C7.00932 6.48335 7.03263 6.40704 7.06993 6.33071C7.11655 6.24592 7.17715 6.17808 7.25175 6.1272C7.34498 6.05937 7.45221 6.01697 7.57343 6Z" fill="#FF8B8B"/>
</svg>
