<svg width="70" height="57" viewBox="0 0 70 57" fill="none" xmlns="http://www.w3.org/2000/svg">
<path class="ihw_svg__fill" d="M2.5236 35.891C0.889211 34.337 0.0443859 32.2697 0.0016604 30.1883C-0.0404954 28.1075 0.720018 26.0075 2.2889 24.3892C3.85664 22.772 5.94449 21.9349 8.04602 21.8932C10.1487 21.8503 12.2684 22.6011 13.904 24.1562L28.0245 42.5L56.1373 2.24972L57.1444 3.01064L56.1361 2.24633C56.2164 2.14311 56.3076 2.05512 56.409 1.98348C58.0816 0.549069 60.1808 -0.0984753 62.2328 0.012081V0.00982471L62.333 0.0188497C64.3969 0.154225 66.413 1.06237 67.9016 2.70717C69.4158 4.37962 70.1022 6.50388 69.9877 8.58019H69.99L69.9809 8.67947C69.8465 10.6864 68.9606 12.6477 67.3553 14.1125L33.6169 54.7758L33.6192 54.7781C33.556 54.8576 33.4848 54.9259 33.4073 54.9856C31.8276 56.3591 29.8326 57.0326 27.849 56.9988C25.8489 56.9644 23.8527 56.2114 22.2998 54.7335L2.5236 35.891Z" fill="#1A1A1A"/>
</svg>
