<svg width="26" height="28" viewBox="0 0 26 28" fill="none" xmlns="http://www.w3.org/2000/svg">
<rect class="hw_svgicon__stroke" x="1.01163" y="4.83014" width="19.7128" height="21.1815" rx="2.02326" stroke="#414141" stroke-width="2.02326"/>
<path class="hw_svgicon__fill" d="M11.1301 17.6627C10.9883 17.8007 10.9827 18.0322 11.1179 18.1674L15.7432 22.7926C15.9507 23.0002 16.3021 22.8326 16.3021 22.526L16.3021 18.0645L16.3021 13.4004C16.3021 13.1022 15.9671 12.9564 15.7554 13.1624L11.1301 17.6627Z" fill="#414141"/>
<rect class="hw_svgicon__fill" width="9.91107" height="3.39989" rx="0.337209" transform="matrix(-1 0 0 1 25.2609 16.2535)" fill="#414141"/>
<path class="hw_svgicon__stroke" d="M13.3812 3.52477C13.3812 3.87899 13.3094 4.02962 13.2715 4.08709C13.2395 4.13552 13.18 4.19804 13.012 4.25966C12.8271 4.32749 12.5596 4.37538 12.1756 4.39988C11.8192 4.42263 11.4246 4.42253 10.967 4.42241C10.9343 4.4224 10.9014 4.4224 10.868 4.4224C10.8347 4.4224 10.8017 4.4224 10.7691 4.42241C10.3114 4.42253 9.9169 4.42263 9.56045 4.39988C9.1765 4.37538 8.90897 4.32749 8.72403 4.25966C8.55607 4.19804 8.49653 4.13552 8.46457 4.08709C8.42663 4.02962 8.35489 3.87899 8.35489 3.52477C8.35489 2.1368 9.48006 1.01163 10.868 1.01163C12.256 1.01163 13.3812 2.1368 13.3812 3.52477Z" stroke="#414141" stroke-width="2.02326"/>
<rect class="hw_svgicon__fill" x="3.52478" y="10.868" width="9.39939" height="1.76239" rx="0.337209" fill="#414141"/>
<rect class="hw_svgicon__fill" x="3.52478" y="21.4424" width="7.63701" height="1.76239" rx="0.337209" fill="#414141"/>
<rect class="hw_svgicon__fill" x="3.52478" y="17.9176" width="4.99343" height="1.76239" rx="0.337209" fill="#414141"/>
<rect class="hw_svgicon__fill" x="3.52478" y="14.3928" width="4.99343" height="1.76239" rx="0.337209" fill="#414141"/>
<rect class="hw_svgicon__fill" x="1.76245" y="7.34329" width="18.2113" height="1.76239" fill="#414141"/>
<path class="hw_svgicon__fill" d="M1.46863 5.65643C1.46863 5.45814 1.63889 5.30265 1.83637 5.3206L4.68369 5.57945C4.68853 5.57989 4.6899 5.58633 4.68564 5.58869V5.58869C4.06588 5.93301 3.99914 6.79843 4.55877 7.2337L4.68706 7.33348C4.69118 7.33668 4.68891 7.34329 4.68369 7.34329H1.80584C1.6196 7.34329 1.46863 7.19231 1.46863 7.00608V5.65643Z" fill="#414141"/>
<path class="hw_svgicon__fill" d="M20.2675 5.65643C20.2675 5.45814 20.0972 5.30265 19.8997 5.3206L17.0524 5.57945C17.0475 5.57989 17.0462 5.58633 17.0504 5.58869V5.58869C17.6702 5.93301 17.7369 6.79843 17.1773 7.2337L17.049 7.33348C17.0449 7.33668 17.0472 7.34329 17.0524 7.34329H19.9302C20.1165 7.34329 20.2675 7.19231 20.2675 7.00608V5.65643Z" fill="#414141"/>
</svg>
